<svg width="69" height="70" viewBox="0 0 69 70" fill="none" xmlns="http://www.w3.org/2000/svg">
<rect x="0.5" y="1.06201" width="68" height="68" rx="13.5" fill="#31333D" stroke="url(#paint0_linear_2001_36)"/>
<g clip-path="url(#clip0_2001_36)">
<path d="M29.2488 23.562C30.7458 23.562 32.2279 23.8481 33.6107 24.4042C34.9936 24.9603 36.2503 25.7751 37.3085 26.8028C38.3671 27.83 39.2063 29.0498 39.7795 30.3926C40.3524 31.7354 40.6473 33.1742 40.6473 34.6271C40.6473 39.1025 37.8701 43.137 33.6107 44.8495C29.3514 46.562 24.4488 45.6155 21.189 42.4509C17.9293 39.2863 16.9541 34.5273 18.718 30.3926C20.4824 26.2579 24.6387 23.562 29.2488 23.562ZM29.2488 37.9461C29.6979 37.9465 30.1427 37.8612 30.558 37.6947C30.9734 37.5283 31.3502 37.2836 31.668 36.9751C31.9858 36.6667 32.2373 36.3006 32.4093 35.8978C32.5809 35.4946 32.6689 35.0627 32.6685 34.6266C32.6685 33.2839 31.8352 32.0736 30.5576 31.5598C29.28 31.0459 27.809 31.33 26.8312 32.2794C25.8534 33.2288 25.5609 34.6565 26.09 35.8969C26.6191 37.1374 27.8663 37.9461 29.2492 37.9461H29.2488Z" fill="#D0A40B"/>
<path d="M42.0606 31.8608C44.9567 32.6699 48.3751 31.8608 48.3751 31.8608C47.3832 36.0655 44.2369 38.6988 39.7003 39.0193C39.263 40.0048 38.6798 40.9235 37.9689 41.7462C37.2587 42.5682 36.4284 43.2856 35.5043 43.8757C34.5804 44.4653 33.5731 44.9212 32.5136 45.2288C31.4541 45.5364 30.3544 45.6921 29.2487 45.6917L32.6685 35.1413C36.1835 24.297 37.9856 23.5624 46.322 23.5624H52.0459C51.0887 27.6566 47.7883 30.7839 42.061 31.8608H42.0606Z" fill="#E7B60E"/>
</g>
<defs>
<linearGradient id="paint0_linear_2001_36" x1="32.8828" y1="2.71826" x2="34.5" y2="69.562" gradientUnits="userSpaceOnUse">
<stop stop-color="#E8EBF0"/>
<stop offset="1" stop-color="#848689" stop-opacity="0.02"/>
</linearGradient>
<clipPath id="clip0_2001_36">
<rect width="36" height="23" fill="white" transform="translate(16.5 23.562)"/>
</clipPath>
</defs>
</svg>
