<svg width="69" height="70" viewBox="0 0 69 70" fill="none" xmlns="http://www.w3.org/2000/svg">
<rect x="0.5" y="0.595764" width="68" height="68" rx="13.5" fill="#31333D" stroke="url(#paint0_linear_2001_33)"/>
<g clip-path="url(#clip0_2001_33)">
<path d="M47 32.3952C44.5432 32.4013 42.1467 31.5969 40.149 30.0954V40.5672C40.1483 42.5068 39.5837 44.3998 38.5307 45.9933C37.4777 47.5868 35.9865 48.8048 34.2564 49.4844C32.5264 50.1639 30.64 50.2727 28.8495 49.7962C27.0589 49.3197 25.4496 48.2806 24.2367 46.8178C23.0238 45.355 22.2652 43.5382 22.0622 41.6105C21.8592 39.6827 22.2215 37.7358 23.1008 36.0301C23.98 34.3244 25.3342 32.9412 26.9824 32.0655C28.6305 31.1898 30.494 30.8632 32.3236 31.1296V36.3965C31.4864 36.12 30.5873 36.1284 29.7549 36.4203C28.9224 36.7123 28.1991 37.2731 27.6882 38.0224C27.1773 38.7718 26.905 39.6715 26.9102 40.5931C26.9154 41.5147 27.1977 42.4109 27.717 43.154C28.2362 43.897 28.9658 44.4487 29.8015 44.7304C30.6372 45.0121 31.5363 45.0093 32.3704 44.7224C33.2044 44.4355 33.9309 43.8793 34.4459 43.1331C34.961 42.3868 35.2383 41.4888 35.2383 40.5672V20.0958H40.149C40.1456 20.5312 40.1803 20.966 40.2528 21.3948C40.4234 22.3519 40.7782 23.2624 41.2955 24.0706C41.8128 24.8788 42.4816 25.5677 43.2611 26.0952C44.3702 26.8652 45.6704 27.2755 47 27.2753V32.3952Z" fill="#E7B60E"/>
</g>
<defs>
<linearGradient id="paint0_linear_2001_33" x1="32.8828" y1="2.25201" x2="34.5" y2="69.0958" gradientUnits="userSpaceOnUse">
<stop stop-color="#E8EBF0"/>
<stop offset="1" stop-color="#848689" stop-opacity="0.02"/>
</linearGradient>
<clipPath id="clip0_2001_33">
<rect width="25" height="30" fill="white" transform="translate(22 20.0958)"/>
</clipPath>
</defs>
</svg>
