<svg width="69" height="70" viewBox="0 0 69 70" fill="none" xmlns="http://www.w3.org/2000/svg">
<rect x="0.5" y="1.14093" width="68" height="68" rx="13.5" fill="#31333D" stroke="url(#paint0_linear_2001_34)"/>
<path d="M49.9449 27.9114C49.5742 26.5257 48.4818 25.4343 47.0948 25.0639C44.5808 24.3909 34.5 24.3909 34.5 24.3909C34.5 24.3909 24.4192 24.3909 21.9052 25.0639C20.5182 25.4344 19.4258 26.5257 19.0551 27.9114C18.3815 30.4232 18.3815 35.6637 18.3815 35.6637C18.3815 35.6637 18.3815 40.9042 19.0551 43.4159C19.4258 44.8017 20.5182 45.8476 21.9052 46.2179C24.4192 46.8909 34.5 46.8909 34.5 46.8909C34.5 46.8909 44.5808 46.8909 47.0948 46.2179C48.4818 45.8476 49.5742 44.8017 49.9449 43.4159C50.6185 40.9042 50.6185 35.6637 50.6185 35.6637C50.6185 35.6637 50.6185 30.4232 49.9449 27.9114ZM31.203 40.4217V30.9057L39.6286 35.6638L31.203 40.4217Z" fill="#E7B60E"/>
<defs>
<linearGradient id="paint0_linear_2001_34" x1="32.8828" y1="2.79718" x2="34.5" y2="69.6409" gradientUnits="userSpaceOnUse">
<stop stop-color="#E8EBF0"/>
<stop offset="1" stop-color="#848689" stop-opacity="0.02"/>
</linearGradient>
</defs>
</svg>
