<svg width="118" height="21" viewBox="0 0 118 21" fill="none" xmlns="http://www.w3.org/2000/svg">
<path d="M15.6915 16.104C14.1555 16.104 13.0035 15.384 12.3555 14.16H12.3075C11.6835 15.288 10.7235 16.008 9.06749 16.008C6.88349 16.008 5.13149 14.184 5.13149 11.04C5.13149 7.728 7.12349 5.592 9.54749 5.592C11.1315 5.592 12.2595 6.48 12.6915 7.536H12.7395L12.9795 5.76H15.1635L14.3955 11.784C14.1795 13.416 14.7075 14.28 15.8595 14.28C17.2755 14.28 18.2115 12.984 18.2115 10.32C18.2115 6 15.2835 2.712 10.4595 2.712C5.58749 2.712 2.32349 6.6 2.32349 10.848C2.32349 15.576 5.61149 18.72 10.2195 18.72C11.7075 18.72 13.0995 18.576 14.5155 18L15.1875 19.536C13.6035 20.352 11.9475 20.568 10.2195 20.568C4.38749 20.568 0.35549 16.776 0.35549 10.848C0.35549 5.4 4.55549 0.863999 10.4595 0.863999C16.5315 0.863999 20.1075 5.112 20.1075 10.248C20.1075 14.736 17.8035 16.104 15.6915 16.104ZM9.57149 14.016C11.4195 14.016 12.3075 12.456 12.3075 10.44C12.3075 8.52 11.3475 7.584 10.0275 7.584C8.27549 7.584 7.29149 9.072 7.29149 11.16C7.29149 12.792 7.96349 14.016 9.57149 14.016ZM20.4514 0.839999H23.3794L26.3074 14.136H26.3554L29.8114 0.839999H32.7394L36.2194 14.136H36.2674L39.1954 0.839999H42.1234L37.8274 18H34.8274L31.2994 4.56H31.2514L27.7474 18H24.7234L20.4514 0.839999ZM47.6947 16.296C49.7827 16.296 50.6227 15 50.8387 14.256H53.3587C52.7347 16.584 50.9107 18.36 47.7667 18.36C43.9507 18.36 41.6227 15.72 41.6227 11.88C41.6227 7.896 43.9507 5.4 47.6467 5.4C51.6067 5.4 53.5507 8.16 53.5507 12.528H44.1427C44.1427 14.592 45.4627 16.296 47.6947 16.296ZM47.6467 7.392C45.6067 7.392 44.1427 8.76 44.1427 10.656H51.0307C51.0307 8.76 49.6867 7.392 47.6467 7.392ZM55.3266 0.839999H57.8706V18H55.3266V0.839999ZM68.7656 10.224C68.6696 8.976 67.8776 7.464 65.7176 7.464C63.2456 7.464 62.1896 9.576 62.1896 11.88C62.1896 14.184 63.2216 16.296 65.7176 16.296C67.8776 16.296 68.6696 14.808 68.7656 13.44H71.2856C71.0936 16.272 68.9096 18.36 65.7176 18.36C62.0456 18.36 59.6696 15.72 59.6696 11.88C59.6696 8.04 62.0456 5.4 65.6936 5.4C68.8856 5.4 70.9736 7.44 71.2856 10.224H68.7656ZM78.4704 18.36C74.6304 18.36 72.3024 15.696 72.3024 11.88C72.3024 8.064 74.6304 5.4 78.4704 5.4C82.3104 5.4 84.6384 8.064 84.6384 11.88C84.6384 15.696 82.3104 18.36 78.4704 18.36ZM78.4704 16.296C80.8704 16.296 82.1184 14.4 82.1184 11.88C82.1184 9.336 80.8704 7.464 78.4704 7.464C76.0704 7.464 74.8224 9.336 74.8224 11.88C74.8224 14.4 76.0704 16.296 78.4704 16.296ZM99.9161 5.4C102.388 5.4 103.66 6.888 103.66 9.528V18H101.116V10.248C101.116 8.592 100.78 7.536 99.0521 7.536C97.3481 7.536 96.2921 8.712 96.2921 10.536V18H93.7481V10.248C93.7481 8.592 93.4121 7.536 91.6601 7.536C89.9801 7.536 88.9001 8.712 88.9001 10.536V18H86.3801V5.736H88.9001V7.32H88.9481C89.5961 6.36 90.7481 5.4 92.5961 5.4C94.3241 5.4 95.3561 6.192 95.8601 7.512H95.9081C96.8201 6.336 98.0201 5.4 99.9161 5.4ZM111.421 16.296C113.509 16.296 114.349 15 114.565 14.256H117.085C116.461 16.584 114.637 18.36 111.493 18.36C107.677 18.36 105.349 15.72 105.349 11.88C105.349 7.896 107.677 5.4 111.373 5.4C115.333 5.4 117.277 8.16 117.277 12.528H107.869C107.869 14.592 109.189 16.296 111.421 16.296ZM111.373 7.392C109.333 7.392 107.869 8.76 107.869 10.656H114.757C114.757 8.76 113.413 7.392 111.373 7.392Z" fill="#F2EFEF"/>
</svg>
