<svg width="20" height="13" viewBox="0 0 20 13" fill="none" xmlns="http://www.w3.org/2000/svg">
<path d="M10.1572 0.160081C9.8972 0.297796 9.73511 0.559662 9.73511 0.844481V5.27951H0.815883C0.365515 5.27951 0 5.63006 0 6.06198C0 6.49391 0.365515 6.84445 0.815883 6.84445H9.73511V11.2795C9.73511 11.5653 9.8972 11.8272 10.1572 11.9639C10.4172 12.1026 10.7348 12.0933 10.9861 11.942L19.6193 6.72447C19.8564 6.5805 20 6.33115 20 6.06198C20 5.79281 19.8564 5.54347 19.6193 5.39949L10.9861 0.18199C10.8534 0.1027 10.7022 0.0620117 10.551 0.0620117C10.4161 0.0620117 10.2801 0.0953971 10.1572 0.160081Z" fill="white"/>
</svg>
