<svg width="17" height="18" viewBox="0 0 17 18" fill="none" xmlns="http://www.w3.org/2000/svg">
<g clip-path="url(#clip0_2001_20)">
<path d="M6.85774 2.24352C7.73385 1.26487 9.26608 1.26487 10.1422 2.24352L10.2264 2.33755C10.6729 2.83632 11.3219 3.10513 11.9903 3.06818L12.1163 3.06122C13.4278 2.98871 14.5113 4.07216 14.4387 5.38368L14.4318 5.50969C14.3948 6.1781 14.6636 6.82708 15.1624 7.27359L15.2564 7.35777C16.2351 8.23388 16.2351 9.76611 15.2564 10.6422L15.1624 10.7264C14.6636 11.1729 14.3948 11.8219 14.4318 12.4903L14.4387 12.6163C14.5113 13.9278 13.4278 15.0113 12.1163 14.9388L11.9903 14.9318C11.3219 14.8949 10.6729 15.1637 10.2264 15.6624L10.1422 15.7565C9.26608 16.7351 7.73385 16.7351 6.85773 15.7565L6.77356 15.6624C6.32705 15.1637 5.67807 14.8949 5.00966 14.9318L4.88365 14.9388C3.57213 15.0113 2.48868 13.9278 2.56118 12.6163L2.56815 12.4903C2.6051 11.8219 2.33629 11.1729 1.83752 10.7264L1.74349 10.6422C0.764836 9.76611 0.764837 8.23388 1.74349 7.35776L1.83752 7.27359C2.33629 6.82708 2.6051 6.1781 2.56815 5.50969L2.56118 5.38368C2.48868 4.07216 3.57213 2.98871 4.88365 3.06122L5.00966 3.06818C5.67807 3.10513 6.32705 2.83632 6.77356 2.33755L6.85774 2.24352Z" fill="#E7B60E"/>
<path d="M5.63635 9.00001L7.54544 10.9091L10.8864 6.61365" stroke="white" stroke-width="1.43182" stroke-linecap="round" stroke-linejoin="round"/>
</g>
<defs>
<clipPath id="clip0_2001_20">
<rect width="17" height="17" fill="white" transform="translate(0 0.5)"/>
</clipPath>
</defs>
</svg>
