<svg width="25" height="26" viewBox="0 0 25 26" fill="none" xmlns="http://www.w3.org/2000/svg">
<path d="M12.5482 1C5.93739 1 0.564026 6.37337 0.564026 12.9841C0.564026 19.5949 5.93739 24.9683 12.5482 24.9683C19.1589 24.9683 24.5323 19.5949 24.5323 12.9841C24.5323 6.37337 19.1589 1 12.5482 1ZM12.5482 2.33157C18.4393 2.33157 23.2007 7.093 23.2007 12.9841C23.2007 18.8753 18.4393 23.6367 12.5482 23.6367C6.65703 23.6367 1.8956 18.8753 1.8956 12.9841C1.8956 7.093 6.65703 2.33157 12.5482 2.33157ZM12.5482 6.32629C10.3787 6.32629 8.55345 8.15155 8.55345 10.321C8.55221 10.4092 8.56851 10.4968 8.60141 10.5787C8.6343 10.6606 8.68315 10.7351 8.74509 10.7979C8.80704 10.8607 8.88086 10.9106 8.96226 10.9447C9.04365 10.9787 9.13101 10.9963 9.21924 10.9963C9.30747 10.9963 9.39483 10.9787 9.47622 10.9447C9.55762 10.9106 9.63144 10.8607 9.69339 10.7979C9.75533 10.7351 9.80418 10.6606 9.83708 10.5787C9.86997 10.4968 9.88627 10.4092 9.88503 10.321C9.88503 8.91845 11.1456 7.65786 12.5482 7.65786C13.9507 7.65786 15.2113 8.91845 15.2113 10.321C15.2213 11.4754 14.5973 12.0709 13.7757 12.8177C13.3649 13.1911 12.9105 13.5825 12.5378 14.0764C12.165 14.5704 11.8824 15.2038 11.8824 15.949V16.3131C11.8811 16.4013 11.8974 16.4889 11.9303 16.5708C11.9632 16.6526 12.0121 16.7271 12.074 16.79C12.136 16.8528 12.2098 16.9027 12.2912 16.9368C12.3726 16.9708 12.4599 16.9883 12.5482 16.9883C12.6364 16.9883 12.7238 16.9708 12.8052 16.9368C12.8865 16.9027 12.9604 16.8528 13.0223 16.79C13.0843 16.7271 13.1331 16.6526 13.166 16.5708C13.1989 16.4889 13.2152 16.4013 13.214 16.3131V15.949C13.214 15.5209 13.3436 15.2158 13.5989 14.8775C13.8541 14.5392 14.2458 14.1918 14.6704 13.806C15.5175 13.0359 16.5528 11.9945 16.5429 10.321C16.5429 10.3175 16.5429 10.3141 16.5429 10.3106C16.537 8.14577 14.7141 6.32629 12.5482 6.32629ZM12.5482 17.9775C11.9966 17.9775 11.5495 18.4246 11.5495 18.9762C11.5495 19.5278 11.9966 19.9749 12.5482 19.9749C13.0997 19.9749 13.5468 19.5278 13.5468 18.9762C13.5468 18.4246 13.0997 17.9775 12.5482 17.9775Z" fill="#F2EFEF" stroke="black" stroke-width="0.2"/>
</svg>
