<svg width="69" height="69" viewBox="0 0 69 69" fill="none" xmlns="http://www.w3.org/2000/svg">
<rect x="0.5" y="0.5" width="68" height="68" rx="13.5" fill="#31333D" stroke="url(#paint0_linear_2001_37)"/>
<path fill-rule="evenodd" clip-rule="evenodd" d="M33.9361 24.0938C33.1595 24.0938 32.5299 24.7233 32.5299 25.5C32.5299 26.2767 33.1595 26.9062 33.9361 26.9062H41.4375C42.2141 26.9062 42.8438 27.5358 42.8438 28.3125V35.8125C42.8438 36.5892 43.4734 37.2188 44.25 37.2188C45.0266 37.2188 45.6562 36.5892 45.6562 35.8125V28.3125C45.6562 25.9825 43.7675 24.0938 41.4375 24.0938H33.9361ZM26.9062 34.875C26.9062 34.0984 26.2767 33.4688 25.5 33.4688C24.7233 33.4688 24.0938 34.0984 24.0938 34.875V41.4375C24.0938 43.7675 25.9825 45.6562 28.3125 45.6562H35.8125C36.5892 45.6562 37.2188 45.0266 37.2188 44.25C37.2188 43.4734 36.5892 42.8438 35.8125 42.8438H28.3125C27.5358 42.8438 26.9062 42.2141 26.9062 41.4375V34.875Z" fill="#E7B60E"/>
<path fill-rule="evenodd" clip-rule="evenodd" d="M33.9361 24.75C33.5219 24.75 33.1861 25.0858 33.1861 25.5C33.1861 25.9142 33.5219 26.25 33.9361 26.25H41.4375C42.5766 26.25 43.5 27.1734 43.5 28.3125V35.8125C43.5 36.2267 43.8358 36.5625 44.25 36.5625C44.6642 36.5625 45 36.2267 45 35.8125V28.3125C45 26.345 43.405 24.75 41.4375 24.75H33.9361ZM31.8736 25.5C31.8736 24.3609 32.797 23.4375 33.9361 23.4375H41.4375C44.1299 23.4375 46.3125 25.6201 46.3125 28.3125V35.8125C46.3125 36.9516 45.3891 37.875 44.25 37.875C43.1109 37.875 42.1875 36.9516 42.1875 35.8125V28.3125C42.1875 27.8983 41.8517 27.5625 41.4375 27.5625H33.9361C32.797 27.5625 31.8736 26.6391 31.8736 25.5ZM25.5 34.125C25.0858 34.125 24.75 34.4608 24.75 34.875V41.4375C24.75 43.405 26.345 45 28.3125 45H35.8125C36.2267 45 36.5625 44.6642 36.5625 44.25C36.5625 43.8358 36.2267 43.5 35.8125 43.5H28.3125C27.1734 43.5 26.25 42.5766 26.25 41.4375V34.875C26.25 34.4608 25.9142 34.125 25.5 34.125ZM23.4375 34.875C23.4375 33.7359 24.3609 32.8125 25.5 32.8125C26.6391 32.8125 27.5625 33.7359 27.5625 34.875V41.4375C27.5625 41.8517 27.8983 42.1875 28.3125 42.1875H35.8125C36.9516 42.1875 37.875 43.1109 37.875 44.25C37.875 45.3891 36.9516 46.3125 35.8125 46.3125H28.3125C25.6201 46.3125 23.4375 44.1299 23.4375 41.4375V34.875Z" fill="#E7B60E"/>
<path d="M21.75 26.4375C21.75 23.8487 23.8487 21.75 26.4375 21.75C29.0263 21.75 31.125 23.8487 31.125 26.4375C31.125 29.0263 29.0263 31.125 26.4375 31.125C23.8487 31.125 21.75 29.0263 21.75 26.4375Z" fill="#E7B60E"/>
<path d="M38.625 43.3125C38.625 40.7237 40.7237 38.625 43.3125 38.625C45.9013 38.625 48 40.7237 48 43.3125C48 45.9013 45.9013 48 43.3125 48C40.7237 48 38.625 45.9013 38.625 43.3125Z" fill="#E7B60E"/>
<defs>
<linearGradient id="paint0_linear_2001_37" x1="32.8828" y1="2.15625" x2="34.5" y2="69" gradientUnits="userSpaceOnUse">
<stop stop-color="#E8EBF0"/>
<stop offset="1" stop-color="#848689" stop-opacity="0.02"/>
</linearGradient>
</defs>
</svg>
