<svg width="22" height="24" viewBox="0 0 22 24" fill="none" xmlns="http://www.w3.org/2000/svg">
<path fill-rule="evenodd" clip-rule="evenodd" d="M6.44086 3.1733C7.69376 1.95173 9.38887 1.26892 11.1523 1.26892C12.9157 1.26892 14.6108 1.95173 15.8637 3.1733C17.1173 4.39554 17.8253 6.05759 17.8253 7.79499C17.8253 11.0185 18.5326 13.0321 19.1941 14.2146C19.5262 14.8081 19.8513 15.2008 20.0812 15.4374C20.1964 15.5558 20.2881 15.6357 20.3455 15.6823C20.3742 15.7057 20.3943 15.7207 20.4045 15.7281C20.4078 15.7305 20.41 15.7321 20.4112 15.7329C20.7008 15.9257 20.8313 16.285 20.7323 16.6191C20.6324 16.9561 20.3228 17.1872 19.9713 17.1872H2.33327C1.9818 17.1872 1.67218 16.9561 1.57229 16.6191C1.47323 16.285 1.60379 15.9257 1.89333 15.7329C1.8945 15.7321 1.89675 15.7305 1.90005 15.7281C1.91023 15.7207 1.93037 15.7057 1.95907 15.6823C2.01647 15.6357 2.1082 15.5558 2.22334 15.4374C2.45321 15.2008 2.77839 14.8081 3.11042 14.2146C3.77198 13.0321 4.47922 11.0185 4.47922 7.79499C4.47922 6.05759 5.18729 4.39554 6.44086 3.1733Z" stroke="#F2EFEF" stroke-width="1.2" stroke-linecap="round" stroke-linejoin="round"/>
<path fill-rule="evenodd" clip-rule="evenodd" d="M8.50723 20.1433C8.8717 19.8998 9.3646 19.9978 9.60816 20.3623C9.75007 20.5746 9.96286 20.764 10.2358 20.9004C10.5089 21.037 10.8256 21.1119 11.153 21.1119C11.4804 21.1119 11.7971 21.037 12.0702 20.9004C12.3431 20.764 12.5559 20.5746 12.6978 20.3623C12.9414 19.9978 13.4343 19.8998 13.7987 20.1433C14.1632 20.3869 14.2612 20.8798 14.0177 21.2443C13.7115 21.7025 13.2811 22.0698 12.7801 22.3203C12.2793 22.5706 11.7186 22.6994 11.153 22.6994C10.5873 22.6994 10.0266 22.5706 9.52585 22.3203C9.0249 22.0698 8.59449 21.7025 8.28829 21.2443C8.04474 20.8798 8.14276 20.3869 8.50723 20.1433Z" fill="black" stroke="#F2EFEF" stroke-width="1.2" stroke-linecap="round" stroke-linejoin="round"/>
</svg>
